<svg xmlns="http://www.w3.org/2000/svg" viewBox="0 0 320 24" fill="none">
  <path
    d="M2 14C22 6 39 8 57 6C78 3 92 0 112 2C132 4 146 11 164 12C186 13 202 7 222 7C244 7 258 13 276 12C292 11 305 6 318 7V18H2V14Z"
    fill="#18120D"
    fill-opacity=".9"
  />
  <path
    d="M8 8C20 6 31 9 43 8C59 7 73 2 93 3C114 4 129 10 149 10C166 10 179 5 196 5C214 5 228 10 247 10C268 10 286 4 312 5V8C292 8 276 13 255 13C237 13 222 9 204 9C184 9 169 14 150 14C129 14 113 8 92 8C76 8 61 11 47 11C33 11 21 8 8 9V8Z"
    fill="#18120D"
    fill-opacity=".5"
  />
  <path
    d="M18 19C28 18 35 20 44 20C55 20 64 17 73 17C86 17 95 20 107 20C121 20 132 16 145 16C158 16 170 19 184 19C198 19 211 16 224 16C240 16 253 21 269 21C286 21 300 18 314 18V20C301 21 288 23 270 23C254 23 241 18 224 18C212 18 200 21 184 21C168 21 157 18 145 18C131 18 118 22 106 22C95 22 85 19 73 19C63 19 54 22 43 22C34 22 26 20 18 21V19Z"
    fill="#18120D"
    fill-opacity=".32"
  />
</svg>
