<svg xmlns="http://www.w3.org/2000/svg" viewBox="0 0 420 320" fill="none">
  <path
    d="M96 44C139 25 185 20 231 27C265 33 294 46 324 65C353 84 379 109 390 143C401 176 395 216 369 246C341 279 297 293 255 296C212 300 169 291 129 276C93 263 57 242 37 207C15 170 9 122 33 88C48 66 72 55 96 44Z"
    fill="#18120D"
    fill-opacity=".88"
  />
  <path
    d="M72 90C111 71 153 63 194 67C239 71 285 91 309 129C333 166 335 221 303 252C273 281 226 286 186 279C145 272 101 255 72 222C44 190 32 143 47 111C52 101 61 95 72 90Z"
    fill="#18120D"
    fill-opacity=".55"
  />
  <path
    d="M229 16C271 17 312 34 343 61C373 87 396 123 404 161C412 198 405 239 382 270C359 301 320 321 280 319C313 297 340 267 354 232C369 197 371 157 358 121C344 83 318 48 278 27C261 19 245 17 229 16Z"
    fill="#18120D"
    fill-opacity=".28"
  />
  <path
    d="M18 167C26 157 39 154 51 159C63 163 72 174 73 187C75 198 69 210 58 215C46 221 31 216 22 206C12 196 10 179 18 167Z"
    fill="#18120D"
    fill-opacity=".36"
  />
  <path
    d="M348 49C355 40 369 39 379 47C391 56 393 74 383 85C374 94 360 95 350 87C339 79 338 61 348 49Z"
    fill="#18120D"
    fill-opacity=".24"
  />
</svg>
